Coordinates
version=1
nRows=22
nColumns=29
inDegrees=yes

Units are S.I. units (second, meters, Newtons, ...)
Angles are in degrees.

endheader
time	pelvis_rz	pelvis_rx	pelvis_ry	pelvis_tx	pelvis_ty	pelvis_tz	hip_flexion_r	hip_adduction_r	hip_rotation_r	knee_angle_r	tp_r3	tp_tx	tp_ty	tp_tz	ankle_angle_r	subtalar_angle_r	mtp_angle_r	hip_flexion_l	hip_adduction_l	hip_rotation_l	knee_angle_l	ltp_r3	ltp_tx	ltp_ty	ltp_tz	ankle_angle_l	subtalar_angle_l	mtp_angle_l
      1.80674074	      0.37581112	     12.77383319	     80.30167436	     -0.07290769	     -0.08177217	      2.81360730	    -18.65139665	     -9.04729201	     10.94229448	     -5.59351719	      5.79086861	      0.04896537	     -0.02247308	      0.00240000	     13.71585340	     15.50411107	      0.00000000	    -24.75739041	     -1.61049922	     16.58551270	     -0.34940350	      0.35775770	      0.04956308	     -0.02267574	     -0.00240000	     29.82240876	    -19.32398803	      0.00000000
      1.84377778	      0.28504889	     12.81108136	     80.31374457	     -0.07284598	     -0.08167724	      2.81366175	    -18.67426794	     -9.13899684	     11.01066394	     -5.59687119	      5.79383496	      0.04896496	     -0.02247295	      0.00240000	     13.85334635	     15.43700158	      0.00000000	    -24.78037305	     -1.51089235	     16.62439299	     -0.34294180	      0.34997747	      0.04956376	     -0.02267599	     -0.00240000	     29.82313041	    -19.32972766	      0.00000000
      1.88081481	      0.28769676	     12.87210723	     80.41828863	     -0.07294636	     -0.08161465	      2.81369037	    -18.78586896	     -9.10641445	     11.01050002	     -5.55860160	      5.76017715	      0.04896962	     -0.02247444	      0.00240000	     13.83948373	     15.22876974	      0.00000000	    -24.82860498	     -1.55693053	     16.77338255	     -0.34543925	      0.35298467	      0.04956350	     -0.02267589	     -0.00240000	     29.82342148	    -19.33480871	      0.00000000
      1.91785185	      0.28189557	     13.04151069	     80.32445106	     -0.07287928	     -0.08138172	      2.81392107	    -18.91077599	     -9.17414596	     11.13031007	     -5.59010637	      5.78789853	      0.04896578	     -0.02247321	      0.00240000	     13.92172722	     15.26952281	      0.00000000	    -25.01278608	     -1.47551480	     16.66556817	     -0.33707831	      0.34291555	      0.04956439	     -0.02267621	     -0.00240000	     29.82459921	    -19.33505695	      0.00000000
      1.95488889	      0.19173463	     13.04442429	     80.44661213	     -0.07291397	     -0.08134553	      2.81391351	    -18.93030784	     -9.21597693	     10.89167330	     -5.59672411	      5.79368572	      0.04896498	     -0.02247296	      0.00240000	     14.02484524	     15.20310871	      0.00000000	    -24.98708976	     -1.43699207	     16.84151775	     -0.33369389	      0.33883817	      0.04956474	     -0.02267634	     -0.00240000	     29.82537915	    -19.33595161	      0.00000000
      1.99192593	      0.13978281	     13.01646117	     80.49848044	     -0.07296026	     -0.08134320	      2.81386243	    -18.91198217	     -9.24602114	     10.72851257	     -5.58476276	      5.78317914	      0.04896643	     -0.02247342	      0.00240000	     14.13393841	     15.21094197	      0.00000000	    -24.94823627	     -1.40407460	     16.89560422	     -0.32910619	      0.33331138	      0.04956523	     -0.02267652	     -0.00240000	     29.82679081	    -19.32832337	      0.00000000
      2.02896296	      0.07943692	     13.01077108	     80.55582468	     -0.07295273	     -0.08130380	      2.81388674	    -18.90155957	     -9.28614782	     10.56400454	     -5.59986048	      5.79643468	      0.04896459	     -0.02247283	      0.00240000	     14.21102797	     15.24499463	      0.00000000	    -24.92539364	     -1.37098335	     16.98993468	     -0.32664026	      0.33033811	      0.04956549	     -0.02267661	     -0.00240000	     29.82752868	    -19.33411222	      0.00000000
      2.06600000	      0.04461044	     12.79220968	     80.48748062	     -0.07285951	     -0.08147114	      2.81371353	    -18.61321989	     -9.31001588	     10.65621990	     -5.66716763	      5.85537641	      0.04895639	     -0.02247021	      0.00240000	     14.24246079	     15.37695751	      0.00000000	    -24.70933534	     -1.33525705	     16.90903138	     -0.32190049	      0.32462446	      0.04956600	     -0.02267679	     -0.00240000	     29.82818446	    -19.33295087	      0.00000000
      2.10303704	     -0.01649539	     12.71672575	     80.53558103	     -0.07286118	     -0.08152471	      2.81363146	    -18.53167209	     -9.32942778	     10.83017915	     -5.68623510	      5.87203355	      0.04895406	     -0.02246946	      0.00240000	     14.30842756	     15.06643356	      0.00000000	    -24.61828985	     -1.30512476	     16.98842095	     -0.31914995	      0.32130846	      0.04956629	     -0.02267690	     -0.00240000	     29.82880413	    -19.33742607	      0.00000000
      2.14007407	     -0.22512328	     12.82142832	     80.71572736	     -0.07295460	     -0.08142167	      2.81376295	    -18.64226400	     -9.52207437	     10.80536622	     -5.69531920	      5.87995169	      0.04895296	     -0.02246911	      0.00240000	     14.40422899	     15.22903647	      0.00000000	    -24.65346012	     -1.14429955	     17.20939081	     -0.32626416	      0.32988543	      0.04956553	     -0.02267663	     -0.00240000	     29.82636226	    -19.34821192	      0.00000000
      2.17711111	     -0.14463648	     12.80951220	     80.68479142	     -0.07290647	     -0.08143417	      2.81374376	    -18.66510816	     -9.41717701	     10.42125849	     -5.60369939	      5.79980678	      0.04896413	     -0.02247268	      0.00240000	     15.08211709	     15.09168243	      0.00000000	    -24.67253760	     -1.22563335	     17.22688844	     -0.31467425	      0.31591056	      0.04956676	     -0.02267707	     -0.00240000	     29.82977984	    -19.34480585	      0.00000000
      2.21414815	     -0.28795739	     12.79477990	     80.72438743	     -0.07280594	     -0.08151392	      2.81377013	    -18.63686838	     -9.53630911	     10.41095485	     -5.54171232	      5.74530952	      0.04897167	     -0.02247510	      0.00240000	     16.23158872	     15.09564993	      0.00000000	    -24.63114124	     -1.09609649	     17.26294690	     -0.30812573	      0.30801087	      0.04956746	     -0.02267732	     -0.00240000	     29.83068923	    -19.34060456	      0.00000000
      2.25118519	     -0.29420148	     12.99438922	     80.84364460	     -0.07294365	     -0.08131644	      2.81396899	    -18.88332053	     -9.53617080	      9.91350614	     -5.51714927	      5.72365714	      0.04897466	     -0.02247606	      0.00240000	     16.45400349	     15.26900117	      0.00000000	    -24.81347348	     -1.10619634	     17.33515408	     -0.30806975	      0.30794331	      0.04956746	     -0.02267732	     -0.00240000	     29.83056270	    -19.34272444	      0.00000000
      2.28822222	     -0.33761595	     12.88667824	     80.76814531	     -0.07283125	     -0.08140388	      2.81390261	    -18.72561513	     -9.58091848	     10.32982550	     -5.54645865	      5.74948761	      0.04897109	     -0.02247492	      0.00240000	     16.59373752	     15.03691970	      0.00000000	    -24.70914295	     -1.04587989	     17.28052475	     -0.30311472	      0.30196403	      0.04956799	     -0.02267751	     -0.00240000	     29.83104690	    -19.33848022	      0.00000000
      2.32525926	     -0.43217703	     12.88111747	     80.81914379	     -0.07278909	     -0.08137270	      2.81388952	    -18.71495907	     -9.65365127	     10.20142092	     -5.55101894	      5.75353443	      0.04897054	     -0.02247474	      0.00240000	     16.77802726	     15.00128597	      0.00000000	    -24.67983346	     -0.97500151	     17.36256811	     -0.29997378	      0.29817277	      0.04956832	     -0.02267763	     -0.00240000	     29.83214920	    -19.34319638	      0.00000000
      2.36229630	     -0.57111209	     12.91800900	     80.88131688	     -0.07272132	     -0.08125778	      2.81392980	    -18.73907945	     -9.77385764	     10.07597087	     -5.56368363	      5.76464948	      0.04896900	     -0.02247425	      0.00240000	     17.07030956	     14.96931424	      0.00000000	    -24.68620575	     -0.86032767	     17.48097433	     -0.29318456	      0.28997588	      0.04956904	     -0.02267789	     -0.00240000	     29.83409015	    -19.34274859	      0.00000000
      2.39933333	     -0.62696660	     12.83289276	     80.91037873	     -0.07270684	     -0.08130877	      2.81386764	    -18.64155019	     -9.81177204	     10.09787691	     -5.56714154	      5.76769213	      0.04896858	     -0.02247411	      0.00240000	     17.21117271	     15.01985051	      0.00000000	    -24.58762719	     -0.82275450	     17.45852600	     -0.29013488	      0.28629299	      0.04956937	     -0.02267801	     -0.00240000	     29.83508294	    -19.33720518	      0.00000000
      2.43637037	     -0.70635348	     12.69932347	     80.88165694	     -0.07263387	     -0.08140932	      2.81376890	    -18.47504137	     -9.86812331	     10.55260983	     -5.58379503	      5.78233803	      0.04896655	     -0.02247346	      0.00240000	     17.35121181	     14.64398094	      0.00000000	    -24.43803844	     -0.74257625	     17.39597947	     -0.28894781	      0.28485913	      0.04956949	     -0.02267805	     -0.00240000	     29.83485516	    -19.34010504	      0.00000000
      2.47340741	     -0.70105917	     13.15041798	     81.01753911	     -0.07280850	     -0.08093263	      2.81421674	    -18.98809712	     -9.91530352	      9.30255517	     -5.54329401	      5.74670040	      0.04897148	     -0.02247504	      0.00240000	     17.39740754	     15.49098639	      0.00000000	    -24.87985969	     -0.73749755	     17.58514426	     -0.28649197	      0.28189258	      0.04956975	     -0.02267815	     -0.00240000	     29.83497989	    -19.34729157	      0.00000000
      2.51044444	     -0.75236931	     13.06023794	     81.02906019	     -0.07277962	     -0.08099403	      2.81414455	    -18.87834019	     -9.93514924	      9.70953759	     -5.56340409	      5.76441705	      0.04896903	     -0.02247426	      0.00240000	     17.47182794	     15.10719232	      0.00000000	    -24.77872887	     -0.70248507	     17.59092594	     -0.28349786	      0.27827533	      0.04957007	     -0.02267826	     -0.00240000	     29.83528108	    -19.34636829	      0.00000000
      2.54748148	     -0.81886249	     12.95325980	     81.07851800	     -0.07279017	     -0.08106319	      2.81403406	    -18.76862900	     -9.98094105	      9.24659116	     -5.56187016	      5.76307926	      0.04896922	     -0.02247432	      0.00240000	     17.56300018	     15.45646693	      0.00000000	    -24.65287934	     -0.66848437	     17.63306129	     -0.28278203	      0.27741067	      0.04957015	     -0.02267829	     -0.00240000	     29.83542039	    -19.34644820	      0.00000000
      2.58451852	     -0.88886394	     12.71148548	     81.10569582	     -0.07276889	     -0.08127119	      2.81380277	    -18.51344627	     -9.99172272	      9.54759979	     -5.56830167	      5.76871019	      0.04896844	     -0.02247407	      0.00240000	     17.63647146	     15.08315049	      0.00000000	    -24.39309543	     -0.64576545	     17.66809474	     -0.27984301	      0.27385958	      0.04957046	     -0.02267840	     -0.00240000	     29.83602429	    -19.34960801	      0.00000000
